<?xml version="1.0" encoding="UTF-8"?>
<svg id="Layer_1" data-name="Layer 1" xmlns="http://www.w3.org/2000/svg" xmlns:xlink="http://www.w3.org/1999/xlink" version="1.1" viewBox="0 0 1024 1024">
  <defs>
    <style>
      .cls-1 {
        clip-path: url(#clippath);
      }

      .cls-2 {
        fill: none;
      }

      .cls-2, .cls-3, .cls-4, .cls-5 {
        stroke-width: 0px;
      }

      .cls-6 {
        clip-path: url(#clippath-1);
      }

      .cls-7 {
        clip-path: url(#clippath-4);
      }

      .cls-8 {
        clip-path: url(#clippath-3);
      }

      .cls-9 {
        clip-path: url(#clippath-2);
      }

      .cls-10 {
        clip-path: url(#clippath-7);
      }

      .cls-11 {
        clip-path: url(#clippath-8);
      }

      .cls-12 {
        clip-path: url(#clippath-6);
      }

      .cls-13 {
        clip-path: url(#clippath-5);
      }

      .cls-14 {
        clip-path: url(#clippath-9);
      }

      .cls-3 {
        fill: #000;
      }

      .cls-15 {
        clip-path: url(#clippath-20);
      }

      .cls-16 {
        clip-path: url(#clippath-21);
      }

      .cls-17 {
        clip-path: url(#clippath-24);
      }

      .cls-18 {
        clip-path: url(#clippath-23);
      }

      .cls-19 {
        clip-path: url(#clippath-22);
      }

      .cls-20 {
        clip-path: url(#clippath-25);
      }

      .cls-21 {
        clip-path: url(#clippath-27);
      }

      .cls-22 {
        clip-path: url(#clippath-28);
      }

      .cls-23 {
        clip-path: url(#clippath-26);
      }

      .cls-24 {
        clip-path: url(#clippath-29);
      }

      .cls-25 {
        clip-path: url(#clippath-34);
      }

      .cls-26 {
        clip-path: url(#clippath-33);
      }

      .cls-27 {
        clip-path: url(#clippath-32);
      }

      .cls-28 {
        clip-path: url(#clippath-30);
      }

      .cls-29 {
        clip-path: url(#clippath-31);
      }

      .cls-30 {
        clip-path: url(#clippath-14);
      }

      .cls-31 {
        clip-path: url(#clippath-13);
      }

      .cls-32 {
        clip-path: url(#clippath-12);
      }

      .cls-33 {
        clip-path: url(#clippath-10);
      }

      .cls-34 {
        clip-path: url(#clippath-15);
      }

      .cls-35 {
        clip-path: url(#clippath-17);
      }

      .cls-36 {
        clip-path: url(#clippath-16);
      }

      .cls-37 {
        clip-path: url(#clippath-19);
      }

      .cls-38 {
        clip-path: url(#clippath-11);
      }

      .cls-39 {
        clip-path: url(#clippath-18);
      }

      .cls-4 {
        fill: #fff;
      }

      .cls-5 {
        fill: #231f20;
      }
    </style>
    <clipPath id="clippath">
      <rect class="cls-2" x="123.5" y="249.3" width="741.3" height="262.7"/>
    </clipPath>
    <clipPath id="clippath-1">
      <rect class="cls-2" x="384.8" y="270.7" width="66.7" height="234.7"/>
    </clipPath>
    <clipPath id="clippath-2">
      <rect class="cls-2" x="326.2" y="288.1" width="182.8" height="185.4" transform="translate(-146.9 406.8) rotate(-45)"/>
    </clipPath>
    <clipPath id="clippath-3">
      <rect class="cls-2" x="326.2" y="288.1" width="182.8" height="185.4" transform="translate(-146.9 406.8) rotate(-45)"/>
    </clipPath>
    <clipPath id="clippath-4">
      <rect class="cls-2" x="326.2" y="288.1" width="182.8" height="185.4" transform="translate(-146.9 406.8) rotate(-45)"/>
    </clipPath>
    <clipPath id="clippath-5">
      <rect class="cls-2" x="388.8" y="274.7" width="57.3" height="54.7"/>
    </clipPath>
    <clipPath id="clippath-6">
      <rect class="cls-2" x="326.2" y="288.1" width="182.8" height="185.4" transform="translate(-146.9 406.8) rotate(-45)"/>
    </clipPath>
    <clipPath id="clippath-7">
      <rect class="cls-2" x="326.2" y="288.1" width="182.8" height="185.4" transform="translate(-146.9 406.8) rotate(-45)"/>
    </clipPath>
    <clipPath id="clippath-8">
      <rect class="cls-2" x="326.2" y="288.1" width="182.8" height="185.4" transform="translate(-146.9 406.8) rotate(-45)"/>
    </clipPath>
    <clipPath id="clippath-9">
      <rect class="cls-2" x="399.5" y="330.7" width="36" height="62.7"/>
    </clipPath>
    <clipPath id="clippath-10">
      <rect class="cls-2" x="326.2" y="288.1" width="182.8" height="185.4" transform="translate(-146.9 406.8) rotate(-45)"/>
    </clipPath>
    <clipPath id="clippath-11">
      <rect class="cls-2" x="326.2" y="288.1" width="182.8" height="185.4" transform="translate(-146.9 406.8) rotate(-45)"/>
    </clipPath>
    <clipPath id="clippath-12">
      <rect class="cls-2" x="326.2" y="288.1" width="182.8" height="185.4" transform="translate(-146.9 406.8) rotate(-45)"/>
    </clipPath>
    <clipPath id="clippath-13">
      <rect class="cls-2" x="407.5" y="406.7" width="21.3" height="93.3"/>
    </clipPath>
    <clipPath id="clippath-14">
      <rect class="cls-2" x="326.2" y="288.1" width="182.8" height="185.4" transform="translate(-146.9 406.8) rotate(-45)"/>
    </clipPath>
    <clipPath id="clippath-15">
      <rect class="cls-2" x="326.2" y="288.1" width="182.8" height="185.4" transform="translate(-146.9 406.8) rotate(-45)"/>
    </clipPath>
    <clipPath id="clippath-16">
      <rect class="cls-2" x="326.2" y="288.1" width="182.8" height="185.4" transform="translate(-146.9 406.8) rotate(-45)"/>
    </clipPath>
    <clipPath id="clippath-17">
      <rect class="cls-2" x="406.1" y="394.7" width="24" height="10.7"/>
    </clipPath>
    <clipPath id="clippath-18">
      <rect class="cls-2" x="326.2" y="288.1" width="182.8" height="185.4" transform="translate(-146.9 406.8) rotate(-45)"/>
    </clipPath>
    <clipPath id="clippath-19">
      <rect class="cls-2" x="326.2" y="288.1" width="182.8" height="185.4" transform="translate(-146.9 406.8) rotate(-45)"/>
    </clipPath>
    <clipPath id="clippath-20">
      <rect class="cls-2" x="326.2" y="288.1" width="182.8" height="185.4" transform="translate(-146.9 406.8) rotate(-45)"/>
    </clipPath>
    <clipPath id="clippath-21">
      <rect class="cls-2" x="466" y="423.3" width="157.8" height="2"/>
    </clipPath>
    <clipPath id="clippath-22">
      <rect class="cls-2" x="466" y="437.3" width="102.8" height="1.8"/>
    </clipPath>
    <clipPath id="clippath-23">
      <rect class="cls-2" x="209.9" y="423.3" width="157.8" height="15.8"/>
    </clipPath>
    <clipPath id="clippath-24">
      <rect class="cls-2" x="208.8" y="422.7" width="160" height="17.3"/>
    </clipPath>
    <clipPath id="clippath-25">
      <rect class="cls-2" x="209.9" y="423.3" width="157.7" height="2"/>
    </clipPath>
    <clipPath id="clippath-26">
      <rect class="cls-2" x="266.1" y="437.3" width="101.5" height="1.8"/>
    </clipPath>
    <clipPath id="clippath-27">
      <rect class="cls-2" x="466" y="328.7" width="157.8" height="15.8"/>
    </clipPath>
    <clipPath id="clippath-28">
      <rect class="cls-2" x="464.8" y="328" width="160" height="17.3"/>
    </clipPath>
    <clipPath id="clippath-29">
      <rect class="cls-2" x="466" y="341.3" width="157.8" height="2.6"/>
    </clipPath>
    <clipPath id="clippath-30">
      <rect class="cls-2" x="466" y="328.7" width="102.8" height="2"/>
    </clipPath>
    <clipPath id="clippath-31">
      <rect class="cls-2" x="209.9" y="328.7" width="157.8" height="15.8"/>
    </clipPath>
    <clipPath id="clippath-32">
      <rect class="cls-2" x="208.8" y="328" width="160" height="17.3"/>
    </clipPath>
    <clipPath id="clippath-33">
      <rect class="cls-2" x="209.9" y="341.3" width="157.7" height="2.6"/>
    </clipPath>
    <clipPath id="clippath-34">
      <rect class="cls-2" x="266.1" y="328.7" width="101.5" height="2"/>
    </clipPath>
  </defs>
  <g class="cls-1">
    <g>
      <g class="cls-6">
        <g class="cls-9">
          <g class="cls-8">
            <g class="cls-7">
              <path class="cls-3" d="M387.9,279.4c.1-.1.2-.2.3-.3,4.4-4.3,13.6-6.7,19.6-7.6,2.9-.4,5.8-.6,8.7-.6,8.2,0,16.5,1.6,23.9,5.4,2.2,1.1,4.3,2.4,6,4.1,1.7,1.8,3.4,4.1,3.7,6.6.3,2.3-.3,4.8-.8,7.1-.9,4.8-2.1,9.5-3.4,14.3-1.3,5.1-2.7,10.1-4.2,15.2-.7,2.3-2.2,5.4-2.4,7.7-.2,1.9,0,3.8-.2,5.8-.2,4.5-.6,9-.9,13.5-.8,11.6-1.7,23.2-2.6,34.7-.2,1.9-.4,3.9-.5,5.8,0,1.2,0,2.6-.2,3.8-.1.7-.7,1.1-.8,2-.4,3.1-.4,6.3-.7,9.5-.1,1.3-.6,2.4-.7,3.7-.1,3.5,0,7.1,0,10.6,0,5,0,10,0,15,0,15.5-.1,31.1-.4,46.6,0,2.3,0,4.6-.1,6.9,0,4.2,0,8.3-3.2,11.5-2.7,2.6-6.6,3.6-10.3,3.6-3.9,0-8-1.1-10.8-4-1.7-1.7-2.6-3.9-3-6.3-.6-3.8-.3-8.3-.4-12.2l-.3-21.1c0-2.8-.2-5.7-.2-8.5-.4-13-.6-26.1-.8-39.1,0-1.6,0-3.2.1-4.7,0,0,0,0,0,0h-.1c-.2-.3-.5-.5-.5-.8-.2-.6-.2-1.5-.2-2.2-.1-1.7-.2-3.4-.2-5.2,0-1.2,0-2.5-.1-3.7-.2-.1-.3-.2-.5-.4-.5-.5-.4-2.7-.5-3.4-.2-2.4-.5-4.8-.6-7.2l-3-36.4c-.3-4-.6-8-.8-12-.1-2.1,0-5.1-.4-7.1-.3-1.5-.9-3-1.4-4.4-.6-1.8-1.2-3.7-1.8-5.5-2.3-7.1-4.3-14.4-6-21.7-.7-3.2-1.6-6.5-1.8-9.9-.3-3.4.7-6.3,2.9-8.9Z"/>
            </g>
          </g>
        </g>
      </g>
      <g class="cls-13">
        <g class="cls-12">
          <g class="cls-10">
            <g class="cls-11">
              <path class="cls-4" d="M391.1,282.4c.1-.1.2-.2.4-.4,1.7-1.5,3.7-2.4,5.8-3.2,7.2-2.9,14.9-3.9,22.6-3.4,7.4.5,18.7,3,23.8,8.8.8.9,1.7,2.2,1.8,3.4.1,1.3-.2,2.7-.4,4-.9,5.5-2.4,10.8-3.8,16.2-1.3,5.1-2.6,10.2-4.3,15.2-.3.9-.6,1.7-1,2.5-.5,1-1.4,2.3-1.5,3.4,0,0,0,0,0,.1-.8,0-1.6,0-2.3,0,.7-3.8,1.9-7.6,3-11.4,1.4-5,2.6-10.1,3.7-15.2,1-4.7,2.1-9.5,2.3-14.3-2.1,6.5-3.8,13.1-5.5,19.6-1.9,7.1-3.8,14.2-5.7,21.3-1,0-2,0-3,0,.7-2.4,1.1-5,1.6-7.4l3.1-15.3c.7-3.2,1.5-6.4,2.2-9.6.4-2,.9-4.1,1-6.2-1.3,2.3-2.2,5.6-3,8.2-2.3,7.9-4.2,15.9-5.8,24-.4,2.1-1,4.3-1.2,6.5-1.4-.2-2.8-.2-4.2-.2-.2-2.5,0-5.2.1-7.7.1-4.9.3-9.8.3-14.7,0-2.2.2-4.4,0-6.5-.6,3.2-1.2,6.3-1.5,9.6-.7,6.5-1,13-1,19.5-1.4,0-2.9,0-4.3,0-1.3-5.4-2.5-10.8-3.5-16.3-.9-5-1.6-10-2.6-14.9-.2,1.6,0,3.3,0,4.9.1,5.2.8,10.4,1.7,15.5.6,3.6,1.4,7.1,2.1,10.6-1.1,0-2.2,0-3.3,0-1.2-3.1-2.1-6.3-3-9.4-2.2-7.5-4-15.1-5.7-22.7-.7-3-1.2-6-1.9-9,.1,3.4.3,6.9.8,10.3.5,3.6,1.3,7.3,2.1,10.9.8,3.4,1.6,6.7,2.5,10.1.9,3.3,2.2,6.5,3,9.9-.6,0-1.3,0-1.9,0-1-2.4-1.7-5-2.5-7.5-2.4-7.4-4.3-14.9-6.2-22.4-1-3.9-1.8-7.9-3-11.8-.3,7.2,1.6,14.7,3.4,21.7,1.7,6.8,3.7,13.5,6.1,20-.7,0-1.4,0-2.1,0-3.2-10-6.3-19.9-8.8-30.1-.9-3.6-2-7.4-2.3-11.1-.2-2.2.3-3.8,1.7-5.4Z"/>
            </g>
          </g>
        </g>
      </g>
      <g class="cls-14">
        <g class="cls-33">
          <g class="cls-38">
            <g class="cls-32">
              <path class="cls-4" d="M400.5,331.5c1.5-.3,5.6,0,7.4.1,2.7,0,5.4,0,8.1.1,4.4,0,8.8,0,13.2,0,2,0,4-.2,6.1-.2l-2,26.6c-.7,9.8-1.4,19.6-2.3,29.3-.1,1.6-.3,3.3-.5,4.9-3.1,0-6.2,0-9.3,0h-15.6c-.4-2.8-.5-5.8-.8-8.6-.6-6-1.1-12-1.6-18.1l-1.3-17.2c-.5-5.7-1-11.5-1.3-17.2Z"/>
            </g>
          </g>
        </g>
      </g>
      <g class="cls-31">
        <g class="cls-30">
          <g class="cls-34">
            <g class="cls-36">
              <path class="cls-4" d="M407.6,407.7c.8-.1,3.8,0,4.9,0h9.8c1.8,0,3.7,0,5.5.2.2,3.5.2,7.1.2,10.6v11.3s-.1,33.1-.1,33.1v17.9c-.1,2.4-.2,4.8-.3,7.2,0,2.2,0,4.4-.4,6.5-.3,1.2-.7,2.1-1.7,3-2,1.8-5.5,2.2-8,2-2.3-.2-5.2-1-6.8-2.8-.9-1-1.2-2.4-1.3-3.7-.2-1.6-.1-3.2-.2-4.7l-.3-8.5-.7-30.7-.6-25.9-.2-9c0-2.1-.1-4.2,0-6.3Z"/>
            </g>
          </g>
        </g>
      </g>
      <g class="cls-35">
        <g class="cls-39">
          <g class="cls-37">
            <g class="cls-15">
              <path class="cls-4" d="M406.9,395c.2,0,20.7,0,22.2,0,.3,3.3.3,6.7-.2,9.9-.1.1-.2.1-.3.1-1.3.1-3.7-.1-5.2-.1h-16.6c-.1-1.7-.2-3.3-.2-5,0-1.7.1-3.3.3-5Z"/>
            </g>
          </g>
        </g>
      </g>
      <g class="cls-16">
        <path class="cls-5" d="M466,423.4h157.8v1.6h-157.8v-1.6Z"/>
      </g>
      <g class="cls-19">
        <path class="cls-5" d="M466,437.3h101.5v1.6h-101.5v-1.6Z"/>
      </g>
      <g class="cls-18">
        <g class="cls-17">
          <g>
            <g class="cls-20">
              <path class="cls-5" d="M367.7,423.4h-157.8v1.6h157.8v-1.6Z"/>
            </g>
            <g class="cls-23">
              <path class="cls-5" d="M367.7,437.3h-101.5v1.6h101.5v-1.6Z"/>
            </g>
          </g>
        </g>
      </g>
      <g class="cls-21">
        <g class="cls-22">
          <g>
            <g class="cls-24">
              <path class="cls-5" d="M466,343.8h157.8v-1.6h-157.8v1.6Z"/>
            </g>
            <g class="cls-28">
              <path class="cls-5" d="M466,329.9h101.5v-1.6h-101.5v1.6Z"/>
            </g>
          </g>
        </g>
      </g>
      <g class="cls-29">
        <g class="cls-27">
          <g>
            <g class="cls-26">
              <path class="cls-5" d="M367.7,343.8h-157.8v-1.6h157.8v1.6Z"/>
            </g>
            <g class="cls-25">
              <path class="cls-5" d="M367.7,329.9h-101.5v-1.6h101.5v1.6Z"/>
            </g>
          </g>
        </g>
      </g>
      <path class="cls-3" d="M130.8,409.7v-43.8h16.6c2.7,0,5,.4,6.9,1.3,1.9.8,3.3,2.1,4.2,3.7,1,1.6,1.4,3.5,1.4,5.7s-.5,3.6-1.6,5.2c-1,1.5-2.5,2.7-4.4,3.6v.6c2.9.7,5.1,2,6.6,3.9,1.5,1.9,2.3,4.3,2.3,7.1,0,4.1-1.2,7.2-3.6,9.4-2.4,2.2-5.9,3.3-10.6,3.3h-17.9ZM147.2,384.3c2.4,0,4.3-.6,5.6-1.9,1.3-1.3,2-3,2-5.3s-.6-4.1-1.9-5.3-3.2-1.8-5.7-1.8h-11.2v14.1h11.2ZM148.3,405.5c6.2,0,9.4-2.8,9.4-8.5s-3.1-8.4-9.4-8.4h-12.3v16.9h12.3Z"/>
      <path class="cls-3" d="M178.1,389.1v16.4h22.3v4.3h-27.5v-43.8h27v4.3h-21.8v14.6h19.3v4.3h-19.3Z"/>
      <path class="cls-3" d="M242.8,409.7h-5.5l-4-12h-18.7l-4.1,12h-5.4l15.3-43.8h7.1l15.3,43.8ZM223.5,371.2l-7.5,22.2h15.8l-7.5-22.2h-.8Z"/>
      <path class="cls-3" d="M265.8,410.4c-5.4,0-9.4-1.4-12.2-4.1-2.8-2.7-4.1-6.8-4.1-12.1v-28.2h5.1v28.1c0,3.8.9,6.7,2.8,8.6,1.8,1.9,4.7,2.9,8.4,2.9,7.5,0,11.2-3.8,11.2-11.5v-28.1h5.1v28.2c0,5.4-1.4,9.4-4.1,12.1-2.8,2.7-6.8,4.1-12.2,4.1Z"/>
      <path class="cls-3" d="M322.6,365.9v4.4h-13.7v39.4h-5.1v-39.4h-13.7v-4.4h32.6Z"/>
      <path class="cls-3" d="M345.6,409.7h-5.1v-17.2l-15.1-26.6h5.6l11.8,20.5h.8l11.7-20.5h5.5l-15.1,26.6v17.2Z"/>
      <path class="cls-3" d="M472.6,403.5v-43.8h16.6c2.7,0,5,.4,6.9,1.3,1.9.8,3.3,2.1,4.2,3.7,1,1.6,1.4,3.5,1.4,5.7s-.5,3.6-1.6,5.2c-1,1.5-2.5,2.7-4.4,3.6v.6c2.9.7,5.1,2,6.6,3.9,1.5,1.9,2.3,4.3,2.3,7.1,0,4.1-1.2,7.2-3.6,9.4-2.4,2.2-5.9,3.3-10.6,3.3h-17.9ZM489,378.1c2.4,0,4.3-.6,5.6-1.9,1.3-1.3,2-3,2-5.3s-.6-4.1-1.9-5.3-3.2-1.8-5.7-1.8h-11.2v14.1h11.2ZM490.1,399.3c6.2,0,9.4-2.8,9.4-8.5s-3.1-8.4-9.4-8.4h-12.3v16.9h12.3Z"/>
      <path class="cls-3" d="M514.8,403.5v-43.8h15.9c2.9,0,5.4.5,7.4,1.5,2,1,3.5,2.3,4.5,4.1,1,1.8,1.5,3.9,1.5,6.3s-.7,5-2,6.7c-1.3,1.8-3.5,3.1-6.3,4v.6c1.4.6,2.6,1.4,3.5,2.6.9,1.2,1.7,3,2.5,5.4l4,12.6h-5.3l-4.4-13.4c-.5-1.6-1.1-2.8-1.8-3.7-.7-.9-1.5-1.5-2.6-1.9-1-.4-2.3-.6-3.9-.6h-7.8v19.6h-5.1ZM530.6,379.5c2.7,0,4.8-.6,6.1-1.9,1.3-1.3,2-3.2,2-5.8s-.7-4.5-2-5.8c-1.3-1.3-3.4-1.9-6.1-1.9h-10.6v15.4h10.6Z"/>
      <path class="cls-3" d="M560.5,382.9v16.4h22.3v4.3h-27.5v-43.8h27v4.3h-21.8v14.6h19.3v4.3h-19.3Z"/>
      <path class="cls-3" d="M625.1,403.5h-5.5l-4-12h-18.7l-4.1,12h-5.4l15.3-43.8h7.1l15.3,43.8ZM605.9,365l-7.5,22.2h15.8l-7.5-22.2h-.8Z"/>
      <path class="cls-3" d="M633.5,403.5v-43.8h5.1v19.1h.9l18-19.1h5.6v.8l-19,20.5,20.5,21.8v.8h-5.9l-19.2-20.2h-.9v20.2h-5.1Z"/>
      <path class="cls-3" d="M686.3,359.7c4.4,0,8.2.8,11.4,2.4,3.2,1.6,5.7,4,7.4,7.3,1.7,3.3,2.6,7.3,2.6,12.3s-.9,9-2.6,12.3c-1.7,3.3-4.2,5.7-7.4,7.3-3.2,1.6-7,2.4-11.4,2.4h-14.2v-43.8h14.2ZM685.8,399.1c3.7,0,6.7-.6,9.1-1.7,2.4-1.1,4.2-3,5.5-5.6,1.2-2.6,1.9-6,1.9-10.3s-.6-7.7-1.9-10.3c-1.2-2.6-3.1-4.4-5.5-5.6-2.4-1.1-5.4-1.7-9.1-1.7h-8.5v35h8.5Z"/>
      <path class="cls-3" d="M736.1,404.1c-3.8,0-7.2-.8-10.1-2.5-3-1.6-5.3-4.1-7-7.5-1.7-3.4-2.5-7.5-2.5-12.6s.8-9.2,2.5-12.6c1.7-3.4,4-5.9,7-7.5,3-1.6,6.3-2.5,10.1-2.5s7.2.8,10.1,2.5c3,1.6,5.3,4.1,7,7.5,1.7,3.4,2.6,7.6,2.6,12.6s-.9,9.2-2.6,12.6c-1.7,3.4-4,5.9-7,7.5-3,1.6-6.3,2.5-10.1,2.5ZM736.1,399.4c4.6,0,8-1.4,10.5-4.3,2.4-2.8,3.7-7.3,3.7-13.5s-1.2-10.7-3.7-13.5c-2.4-2.8-5.9-4.3-10.5-4.3-9.4,0-14.1,5.9-14.1,17.8s4.7,17.8,14.1,17.8Z"/>
      <path class="cls-3" d="M779.2,403.5h-6.8l-10-43.8h5.1l8.3,36.2h.7l9.8-36.2h4.8l9.8,36.2h.8l8.3-36.2h5l-10,43.8h-6.8l-9.1-33.2h-.6l-9.1,33.2Z"/>
      <path class="cls-3" d="M828.9,403.5h-5v-43.8h6.3l21.4,33.5h.8v-33.5h5v43.8h-5.4l-22.3-35.8h-.8v35.8Z"/>
    </g>
  </g>
</svg>